<?xml version="1.0" encoding="UTF-8"?>
<svg width="1600px" height="800px" viewBox="0 0 1600 800" version="1.1" xmlns="http://www.w3.org/2000/svg" xmlns:xlink="http://www.w3.org/1999/xlink">
    <title>7A929479-639D-4AAF-88B2-B7676A9A58B0@1x</title>
    <defs>
        <linearGradient x1="21.875%" y1="0%" x2="171.682022%" y2="100%" id="linearGradient-1">
            <stop stop-color="#141E2A" offset="0%"></stop>
            <stop stop-color="#3D5D71" offset="100%"></stop>
        </linearGradient>
        <rect id="path-2" x="0" y="0" width="600" height="800"></rect>
        <linearGradient x1="-33.9189736%" y1="0%" x2="115.714276%" y2="100%" id="linearGradient-3">
            <stop stop-color="#141E2A" offset="0%"></stop>
            <stop stop-color="#3D5D71" offset="100%"></stop>
        </linearGradient>
        <linearGradient x1="100%" y1="-37.4357205%" x2="0%" y2="62.5%" id="linearGradient-4">
            <stop stop-color="#141E2A" offset="0%"></stop>
            <stop stop-color="#3D5D71" offset="100%"></stop>
        </linearGradient>
    </defs>
    <g id="Homepage" stroke="none" stroke-width="1" fill="none" fill-rule="evenodd">
        <g id="thuso-hp-header-pattern">
            <g id="bg-blue">
                <use fill="#22394D" xlink:href="#path-2"></use>
                <use fill="url(#linearGradient-1)" xlink:href="#path-2"></use>
            </g>
            <path d="M600,399.998805 C600,620.542122 778.983168,799.3978 1000,800 L1200,800 L1200,2.27373675e-13 L1000,2.27373675e-13 C778.983099,0.599395539 600,179.455186 600,399.998598 L600,2.27373675e-13 L1200,2.27373675e-13 L1200,800 L600,800 L600,399.998805 L600,399.998805 Z" id="Path" fill="url(#linearGradient-3)"></path>
            <path d="M1333.31333,600 L1266.66667,599.984488 L1400,467.036011 L1400,533.495845 L1400.02222,467.036011 L1533.33333,600 L1333.31333,600 Z M1266.66667,467.036011 L1266.66667,600 L1199.98111,600 L1133.33333,599.984488 L1266.66667,467.036011 Z M1133.33333,467.036011 L1133.33333,600 L1066.64667,600 L1000,599.984488 L1133.33333,467.036011 Z M1533.35556,334.072022 L1666.66667,467.036011 L1666.66667,533.495845 L1666.68889,467.036011 L1800,600 L1666.66667,600 L1666.66667,533.540166 L1666.64667,600 L1533.33333,467.036011 L1533.33333,400.531856 L1533.35556,334.072022 Z M1133.33333,334.072022 L1133.33333,467.036011 L1066.64667,467.036011 L1000,467.022714 L1133.33333,334.072022 Z M1400,332.963989 L1400,465.927978 L1333.31556,465.927978 L1266.66667,465.912465 L1400,332.963989 Z M1266.66667,332.963989 L1266.66667,465.927978 L1199.98222,465.927978 L1133.33333,465.912465 L1266.66667,332.963989 Z M1666.66667,200 L1666.66667,266.459834 L1666.68889,200 L1800,332.963989 L1800,399.469252 L1799.97778,465.927978 L1666.66667,332.963989 L1666.66667,266.504155 L1666.64667,332.963989 L1533.33333,200 L1666.66667,200 Z M1400.01556,200 L1533.33333,332.963989 L1533.33333,399.468144 L1533.31111,465.927978 L1400,332.963989 L1333.31333,332.963989 L1266.66667,332.948476 L1400,200 L1399.999,266.459 L1400.01556,200 Z M1266.66667,200 L1266.66667,332.963989 L1199.98111,332.963989 L1133.33333,332.948476 L1266.66667,200 Z M1133.33333,200 L1133.33333,332.963989 L1066.64667,332.963989 L1000,332.948476 L1133.33333,200 Z" id="Mask" fill="url(#linearGradient-4)" transform="translate(1400.000000, 400.000000) rotate(-90.000000) translate(-1400.000000, -400.000000) "></path>
        </g>
    </g>
</svg>