<?xml version="1.0" encoding="UTF-8"?>
<svg width="108px" height="108px" viewBox="0 0 108 108" version="1.1" xmlns="http://www.w3.org/2000/svg" xmlns:xlink="http://www.w3.org/1999/xlink">
    <!-- Generator: sketchtool 52.6 (67491) - http://www.bohemiancoding.com/sketch -->
    <title>C0AC76F9-BF3C-4AAB-A80A-1759686C8D01@1x</title>
    <desc>Created with sketchtool.</desc>
    <g id="Homepage" stroke="none" stroke-width="1" fill="none" fill-rule="evenodd">
        <g id="Thuso-web-home-v1" transform="translate(-1246.000000, -2138.000000)" fill="#A8774F">
            <g id="our-funds" transform="translate(0.000000, 1494.000000)">
                <g id="thuso-pattern-dots" transform="translate(1246.000000, 644.000000)">
                    <path d="M108,11.9117647 C108,18.4898467 102.667584,23.8235294 96.0882353,23.8235294 C89.5101533,23.8235294 84.1764706,18.4898467 84.1764706,11.9117647 C84.1764706,5.33368273 89.5101533,0 96.0882353,0 C102.667584,0 108,5.33368273 108,11.9117647" id="Fill-1"></path>
                    <path d="M108,53.2058824 C108,59.7852315 102.667584,65.1176471 96.0882353,65.1176471 C89.5101533,65.1176471 84.1764706,59.7852315 84.1764706,53.2058824 C84.1764706,46.6278004 89.5101533,41.2941176 96.0882353,41.2941176 C102.667584,41.2941176 108,46.6278004 108,53.2058824" id="Fill-3"></path>
                    <path d="M108,96.0882353 C108,102.666317 102.667584,108 96.0882353,108 C89.5101533,108 84.1764706,102.666317 84.1764706,96.0882353 C84.1764706,89.5101533 89.5101533,84.1764706 96.0882353,84.1764706 C102.667584,84.1764706 108,89.5101533 108,96.0882353" id="Fill-5"></path>
                    <path d="M65.1176471,11.9117647 C65.1176471,18.4898467 59.7852315,23.8235294 53.2058824,23.8235294 C46.6278004,23.8235294 41.2941176,18.4898467 41.2941176,11.9117647 C41.2941176,5.33368273 46.6278004,0 53.2058824,0 C59.7852315,0 65.1176471,5.33368273 65.1176471,11.9117647" id="Fill-7"></path>
                    <path d="M65.1176471,53.2058824 C65.1176471,59.7852315 59.7852315,65.1176471 53.2058824,65.1176471 C46.6278004,65.1176471 41.2941176,59.7852315 41.2941176,53.2058824 C41.2941176,46.6278004 46.6278004,41.2941176 53.2058824,41.2941176 C59.7852315,41.2941176 65.1176471,46.6278004 65.1176471,53.2058824" id="Fill-9"></path>
                    <path d="M65.1176471,96.0882353 C65.1176471,102.666317 59.7852315,108 53.2058824,108 C46.6278004,108 41.2941176,102.666317 41.2941176,96.0882353 C41.2941176,89.5101533 46.6278004,84.1764706 53.2058824,84.1764706 C59.7852315,84.1764706 65.1176471,89.5101533 65.1176471,96.0882353" id="Fill-11"></path>
                    <path d="M23.8235294,11.9117647 C23.8235294,18.4898467 18.4911139,23.8235294 11.9117647,23.8235294 C5.33368273,23.8235294 0,18.4898467 0,11.9117647 C0,5.33368273 5.33368273,0 11.9117647,0 C18.4911139,0 23.8235294,5.33368273 23.8235294,11.9117647" id="Fill-13"></path>
                    <path d="M23.8235294,53.2058824 C23.8235294,59.7852315 18.4911139,65.1176471 11.9117647,65.1176471 C5.33368273,65.1176471 0,59.7852315 0,53.2058824 C0,46.6278004 5.33368273,41.2941176 11.9117647,41.2941176 C18.4911139,41.2941176 23.8235294,46.6278004 23.8235294,53.2058824" id="Fill-15"></path>
                    <path d="M23.8235294,96.0882353 C23.8235294,102.666317 18.4911139,108 11.9117647,108 C5.33368273,108 0,102.666317 0,96.0882353 C0,89.5101533 5.33368273,84.1764706 11.9117647,84.1764706 C18.4911139,84.1764706 23.8235294,89.5101533 23.8235294,96.0882353" id="Fill-17"></path>
                </g>
            </g>
        </g>
    </g>
</svg>