<svg width="50" height="50" xmlns="http://www.w3.org/2000/svg">
  <g fill="#FFF" fill-rule="evenodd">
    <path opacity=".2" d="M0 0h50v50H0z"/>
    <path d="M27.005 24.817c0 4.939-3.976 8.942-8.881 8.942s-8.881-4.003-8.881-8.942c0-4.938 3.976-8.942 8.88-8.942 4.906 0 8.882 4.004 8.882 8.942zm9.743 0c0 4.65-1.988 8.418-4.44 8.418-2.453 0-4.441-3.769-4.441-8.418 0-4.648 1.988-8.417 4.44-8.417 2.453 0 4.44 3.769 4.44 8.417zm3.985 0c0 4.165-.7 7.542-1.562 7.542-.862 0-1.562-3.377-1.562-7.542s.7-7.541 1.562-7.541c.863 0 1.562 3.376 1.562 7.541z"/>
  </g>
</svg>
