<svg width="50" height="50" xmlns="http://www.w3.org/2000/svg">
  <g fill="#FFF" fill-rule="evenodd">
    <path opacity=".2" d="M0 0h50v50H0z"/>
    <path d="M12 15.386c0-.836.293-1.527.878-2.07.586-.544 1.347-.816 2.284-.816.92 0 1.665.268 2.234.803.585.552.878 1.272.878 2.158 0 .803-.284 1.473-.853 2.008-.586.552-1.355.828-2.309.828h-.025c-.92 0-1.665-.276-2.234-.828-.569-.552-.853-1.246-.853-2.083zm.326 21.96V20.58h5.572v16.765h-5.572zm8.659 0h5.571v-9.361c0-.586.067-1.038.2-1.356a3.64 3.64 0 011.067-1.443c.477-.393 1.075-.59 1.795-.59 1.874 0 2.81 1.264 2.81 3.79v8.96H38v-9.612c0-2.477-.586-4.355-1.757-5.635-1.17-1.28-2.719-1.92-4.643-1.92-2.158 0-3.84.93-5.044 2.786v.05h-.025l.025-.05v-2.384h-5.571c.033.535.05 2.2.05 4.994 0 2.794-.017 6.718-.05 11.77z" fill-rule="nonzero"/>
  </g>
</svg>
